<svg xmlns="http://www.w3.org/2000/svg" width="224.77" height="214.877" viewBox="0 0 224.77 214.877">
  <path id="pattern_tolshe" d="M7747.063,12003.8h.408v.456l-9.025,8.629,9.025,8.628v18.509l-9.025,8.628,9.025,8.628v18.509l-9.025,8.628,9.025,8.629v18.508l-9.025,8.629,9.025,8.628v18.509l-9.025,8.628,9.025,8.628v18.507l-9.025,8.628,9.025,8.629v18.342h-.768l.293-.279v-16.981q-9.027,8.629-18.054,17.259h-.644c-5.993-5.775-12.037-11.507-18.054-17.259v16.981l.293.279h-1.248l.293-.279v-16.981q-9.028,8.629-18.054,17.259h-.644c-5.993-5.775-12.037-11.507-18.054-17.259v16.981l.293.279h-1.248l.293-.279v-16.981q-9.027,8.629-18.054,17.259h-.644c-5.993-5.775-12.037-11.507-18.054-17.259v16.981l.293.279h-1.248l.293-.279v-16.981c-6.017,5.752-12.061,11.483-18.054,17.259h-.644q-9.031-8.625-18.054-17.259v16.981l.293.279h-1.248l.293-.279v-16.981c-6.017,5.752-12.061,11.483-18.054,17.259h-.644q-9.031-8.625-18.054-17.259v16.981l.293.279h-1.248l.292-.279v-16.981c-6.017,5.752-12.061,11.483-18.053,17.259h-.649q-9.031-8.625-18.054-17.259v16.981l.293.279h-.768v-18.342l9.025-8.629-9.025-8.628v-18.5l9.025-8.628-9.025-8.628v-18.51l9.025-8.628-9.025-8.629v-18.509l9.025-8.628-9.025-8.628v-18.51l9.025-8.627-9.025-8.628v-18.51l9.025-8.627-9.025-8.628v-.458h.466l9.036,8.635,9.031-8.635h.644l9.031,8.635,9.032-8.635h.639l9.032,8.635,9.031-8.635h.644l9.032,8.635,9.031-8.635h.644l9.031,8.635,9.032-8.635h.644l9.034,8.635,9.031-8.635h.644l9.032,8.635,9.031-8.635h.644l9.032,8.635,9.031-8.635h.644l9.032,8.635,9.031-8.635h.644l9.031,8.635,9.031-8.635h.644l9.031,8.635,9.031-8.635h.644l9.032,8.635,9.031-8.635h.057Zm-36.823,143.069,9.022,8.625,8.881-8.492-17.9-17.114Zm18.045,17.884v-16.981l-17.9,17.115,8.881,8.49Zm-177.013-26.586-9.245,8.837,8.881,8.49,9.022-8.623v-16.981Zm-.363,35.205,8.881-8.491-17.9-17.115v16.981Zm150.014-70.972-9.245,8.838,8.881,8.491,9.022-8.625v-16.981Zm-.363,35.207,8.881-8.491-17.9-17.115v16.981Zm0-53.648,9.022-8.625v-16.98l-17.9,17.114Zm18.234.451-8.881-8.491-8.881,8.491,8.881,8.491Zm-9.354,8.941-17.9-17.115v16.981l9.022,8.624Zm-18.234,17.427,8.881-8.49-8.881-8.491-8.881,8.491Zm-.331,1.219-17.9,17.115,8.881,8.491,9.022-8.625Zm-18.045-.9,9.022,8.625,8.881-8.491-17.9-17.115v16.981Zm9.022-9.258,9.022-8.625v-16.98l-17.9,17.114Zm-9.022-26.507,9.022,8.624,8.881-8.491-17.9-17.114v16.981Zm-.331,17.566,8.881-8.491-8.881-8.491-8.881,8.491Zm-8.991,9.5-9.244,8.838,8.881,8.491,9.022-8.625v-16.981Zm-.363,35.207,8.881-8.491-17.9-17.115v16.981Zm0-53.648,9.022-8.625v-16.98l-17.9,17.114Zm8.881,9.393-17.9-17.112v16.982l9.022,8.62Zm-18.234,17.427,8.881-8.49-8.881-8.491-8.881,8.491Zm-.331,1.219-17.9,17.115,8.881,8.491,9.022-8.625Zm-18.045-.9,9.022,8.625,8.881-8.491-17.9-17.115Zm9.022-9.258,9.022-8.625v-16.98l-17.9,17.114Zm-9.022-26.507,9.022,8.624,8.881-8.491-17.9-17.114Zm-.331,17.566,8.881-8.491-8.881-8.491-8.881,8.491Zm-8.991,9.5-9.244,8.838,8.881,8.491,9.022-8.625v-16.981Zm-.363,35.207,8.881-8.491-17.9-17.115v16.981l9.022,8.625Zm0-53.648,9.022-8.625v-16.98l-17.9,17.114,8.881,8.491Zm8.88,9.393-17.9-17.111v16.981l9.021,8.62Zm-18.234,17.427,8.881-8.49-8.881-8.491-8.881,8.491Zm-.331,1.219-17.9,17.115,8.881,8.491,9.022-8.625Zm-18.045-.9,9.022,8.625,8.881-8.491-17.9-17.115Zm9.022-9.258,9.022-8.625v-16.98l-17.9,17.114ZM7598,12075.33l9.022,8.624,8.881-8.491-17.9-17.114Zm-.331,17.566,8.881-8.491-8.881-8.491-8.881,8.491Zm-8.991,9.5-9.245,8.838,8.881,8.491,9.022-8.625v-16.981Zm-.363,35.207,8.881-8.491L7579.3,12112v16.981l9.022,8.625Zm0-53.648,9.022-8.625v-16.98l-17.9,17.114,8.881,8.491Zm8.881,9.393-17.9-17.115v16.981l9.022,8.624Zm-18.234,17.427,8.881-8.49-8.881-8.491-8.881,8.491Zm-.334,1.228-17.9,17.115,8.881,8.491,9.022-8.625Zm-18.042-.911,9.022,8.625,8.881-8.491-17.9-17.115Zm9.019-9.249,9.022-8.624v-16.98l-17.9,17.114,8.881,8.49Zm-9.022-26.507,9.022,8.625,8.881-8.492-17.9-17.114v16.981Zm-.331,17.566,8.881-8.491-8.881-8.49-8.881,8.49Zm-9.345-8.941,9.014-8.626.008-16.979-17.9,17.115Zm8.881,9.393-9.253-8.838-8.65-8.278v16.982l9.022,8.625Zm.133.762-8.659,8.277-9.236,8.842,8.881,8.491,9.014-8.629Zm-.142,35-17.9-17.115v16.981l9.022,8.625Zm.472-17.432-8.881,8.491,8.881,8.491,8.881-8.491Zm8.99,26.478-8.659-8.277v16.98l9.022,8.625,8.881-8.491Zm9.387,9.609-17.9,17.115,8.881,8.491,9.022-8.624Zm.331-18.2-8.881,8.491,8.881,8.491,8.881-8.491Zm8.99,26.479-8.659-8.277v16.98l9.022,8.625,8.881-8.491Zm.728-17.882-9.245,8.837,8.881,8.491,9.022-8.624v-16.981Zm8.99-26.478-8.881,8.491,8.881,8.49,8.881-8.49Zm8.991,26.478-8.659-8.277v16.98l9.022,8.625,8.881-8.491-9.245-8.837Zm9.386,9.6-17.9,17.115,8.881,8.491,9.022-8.624Zm.331-18.194-8.881,8.49,8.881,8.491,8.881-8.491Zm8.991,26.478-8.659-8.277v16.98l9.022,8.625,8.881-8.491Zm.727-17.883-9.244,8.838,8.881,8.491,9.022-8.624v-16.982Zm8.99-26.477-8.881,8.491,8.881,8.491,8.881-8.491Zm8.991,26.478-8.659-8.277v16.98l9.022,8.625,8.881-8.491Zm9.386,9.605-17.9,17.115,8.881,8.491,9.022-8.625Zm.331-18.2-8.881,8.491,8.881,8.49,8.881-8.49Zm8.991,26.478-8.659-8.277v16.98l9.022,8.625,8.881-8.491Zm.727-17.882-9.245,8.837,8.881,8.492,9.022-8.625V12129.9Zm8.99-26.478-8.881,8.491,8.881,8.491,8.881-8.491Zm8.991,26.478-8.659-8.277v16.98l9.022,8.625,8.881-8.491Zm9.386,9.605-17.9,17.115,8.881,8.491,9.022-8.625Zm.331-18.2-8.881,8.491,8.881,8.491,8.881-8.491Zm8.991,26.478-8.659-8.277v16.98l9.022,8.625,8.881-8.491-9.245-8.837Zm.727-17.882-9.245,8.837,8.881,8.492,9.022-8.625v-16.981l-8.659,8.277Zm8.99-26.478-8.881,8.491,8.881,8.491,8.881-8.491Zm9.717,8.595-9.245,8.838,8.881,8.491,9.022-8.624v-16.982Zm-9.386-9.18,9.022,8.624,8.881-8.49-17.9-17.115Zm9.386-26.581-9.245,8.837,8.881,8.492,9.022-8.625v-16.981Zm-9.386-9.181,9.022,8.625,8.881-8.491-17.9-17.115v16.982Zm9.386-26.581-9.245,8.838,8.881,8.491,9.022-8.625V12040.5Zm-9.386-9.18,9.022,8.625,8.881-8.491-17.9-17.115Zm-.331,17.566,8.881-8.49-8.881-8.491-8.881,8.491Zm-9.354-8.942,9.022-8.625v-16.98l-17.9,17.114,8.881,8.491Zm8.881,9.394-17.9-17.115v16.981l9.022,8.625Zm-18.234,17.432,8.881-8.491-8.881-8.49-8.881,8.49Zm-9.354-8.942,9.022-8.625V12040.5l-17.9,17.115Zm-9.022-26.508,9.022,8.625,8.881-8.492-17.9-17.114Zm-.331,17.566,8.881-8.491-8.881-8.49-8.881,8.49Zm-9.354-8.942,9.022-8.625v-16.98l-17.9,17.114Zm8.881,9.394-9.245-8.838-8.657-8.3v16.981l9.021,8.649Zm-18.234,17.432,8.881-8.491-8.881-8.491-8.881,8.491Zm-9.354-8.942,9.022-8.625V12040.5l-17.9,17.115Zm-9.022-26.508,9.022,8.625,8.881-8.492-17.9-17.114Zm-.331,17.566,8.881-8.49-8.881-8.491-8.881,8.491Zm-9.346-8.966,9.022-8.624v-16.981l-17.9,17.115Zm8.881,9.394-17.908-17.117v16.982l9.027,8.626Zm-18.234,17.433,8.881-8.491-8.881-8.491-8.881,8.491Zm-9.354-8.943,9.022-8.624v-16.982l-17.9,17.115Zm-9.022-26.507,9.022,8.624,8.881-8.491-17.9-17.114Zm-.331,17.566,8.881-8.491-8.881-8.491-8.881,8.491Zm-9.354-8.943,9.022-8.624v-16.981l-17.9,17.114Zm8.88,9.394-17.9-17.115v16.981l9.022,8.625Zm-18.234,17.433,8.881-8.491-8.881-8.491-8.881,8.491Zm-9.361-8.942,9.022-8.624v-16.98l-17.9,17.113Zm-9.022-26.507,9.022,8.624,8.881-8.491-17.9-17.114Zm-.331,17.566,8.881-8.491-8.881-8.491-8.881,8.491Zm-9.345-8.942,9.014-8.625.008-16.979-17.9,17.115Zm8.881,9.393-9.254-8.838-8.65-8.277v16.981l9.022,8.625Zm-18.243,17.433,8.881-8.491-8.881-8.491-8.881,8.491Zm0,35.765,8.881-8.491-8.881-8.491-8.881,8.491Zm0,35.765,8.881-8.491-8.881-8.491-8.881,8.491Zm0,35.766,8.881-8.491-8.881-8.491-8.881,8.491Zm18.375-16.665-17.9,17.114,8.881,8.491,9.014-8.623Zm.331-18.2-8.881,8.491,8.881,8.491,8.881-8.491Zm8.99,26.478-8.659-8.277v16.981l9.022,8.625,8.881-8.491Zm9.717-8.595-8.881,8.491,8.881,8.491,8.881-8.491Zm18.375.317-17.9,17.115,8.881,8.491,9.022-8.625Zm.331-18.194-8.881,8.491,8.881,8.49,8.881-8.49Zm8.991,26.478-8.659-8.277v16.981l9.022,8.624,8.881-8.49Zm9.717-8.6-8.881,8.491,8.881,8.491,8.881-8.491Zm18.375.317-17.9,17.115,8.881,8.491,9.022-8.625Zm.331-18.194-8.881,8.491,8.881,8.49,8.881-8.49Zm8.991,26.478-8.659-8.277v16.981l9.022,8.625,8.881-8.491Zm9.717-8.6-8.881,8.491,8.881,8.491,8.881-8.491Zm18.376.317-17.9,17.115,8.881,8.491,9.022-8.624Zm.331-18.194-8.881,8.491,8.881,8.49,8.881-8.49Zm8.991,26.478-8.659-8.277v16.981l9.022,8.625,8.881-8.491Zm9.717-8.595-8.881,8.491,8.881,8.49,8.881-8.49Zm18.375.317-17.9,17.115,8.881,8.491,9.022-8.625Zm.331-18.2-8.881,8.491,8.881,8.491,8.881-8.491Zm8.991,26.478-8.659-8.277v16.981l9.022,8.625,8.881-8.491Zm9.716-8.595-8.881,8.491,8.881,8.49,8.881-8.49Zm0-35.765-8.881,8.49,8.881,8.491,8.881-8.491Zm0-35.766-8.881,8.491,8.881,8.49,8.881-8.49Zm0-35.765-8.881,8.49,8.881,8.491,8.881-8.491Zm0-35.766-8.881,8.491,8.881,8.491,8.881-8.491Zm-.331-17.56-8.659,8.277-9.24,8.8,8.881,8.491,9.018-8.591Zm-9.5,8.145-8.881-8.491-8.881,8.491,8.881,8.491Zm-18.594.1-8.66-8.277v16.977l9.022,8.625,8.881-8.491Zm-8.99,26.27,8.881-8.49-8.881-8.491-8.881,8.491Zm-.331-34.542-17.9,17.105,8.881,8.491,9.022-8.615Zm-9.495,8.174-8.881-8.491-8.881,8.491,8.881,8.491Zm-18.6.1-8.659-8.277v16.98l9.022,8.625,8.881-8.491Zm-8.99,26.27,8.881-8.49-8.881-8.491-8.881,8.491Zm-.331-34.542-17.9,17.105,8.881,8.491,9.022-8.615Zm-9.5,8.174-8.881-8.491-8.881,8.491,8.881,8.491Zm-18.6.1-8.659-8.277v16.98l9.022,8.625,8.881-8.491Zm-8.99,26.27,8.881-8.49-8.881-8.491-8.881,8.491Zm-.332-34.547-8.658,8.282-9.246,8.828,8.881,8.491,9.022-8.62Zm-9.494,8.179-8.881-8.491-8.881,8.491,8.881,8.491Zm-18.6.1-8.659-8.277v16.977l9.023,8.625,8.881-8.491Zm-8.989,26.27,8.881-8.49-8.881-8.491-8.881,8.491Zm-.336-34.547-8.653,8.282-9.246,8.828,8.881,8.491,9.019-8.62Zm-9.49,8.179-8.881-8.491-8.881,8.491,8.881,8.491Zm-18.6.1-8.659-8.277,0,16.977,9.023,8.625,8.881-8.491Zm-8.99,26.27,8.881-8.49-8.881-8.491-8.881,8.491Zm-.332-34.547-17.9,17.11,8.881,8.491,9.022-8.62Zm-18.045,17.882v16.981l9.023,8.625,8.881-8.491Zm18.045,17.883-17.9,17.114,8.881,8.491,9.022-8.624Zm-18.045,17.882v16.981l9.023,8.625,8.881-8.491Zm18.045,17.884-17.9,17.114,8.881,8.491,9.022-8.624Zm-18.045,17.882v16.981l9.023,8.625,8.881-8.491Zm18.045,17.884-17.9,17.115,8.881,8.491,9.022-8.625Zm-18.045,17.881v16.981l9.022,8.624,8.881-8.491Zm18.045,17.885-17.9,17.115,8.881,8.49,9.022-8.624Zm-18.045,17.88v16.981l9.023,8.629,8.881-8.491Zm9.386,26.159-9.244,8.84,8.881,8.489,9.022-8.625v-16.981Zm.109,17.78,8.881,8.491,8.881-8.491-8.881-8.491Zm9.211-9.074,9.022,8.624,8.882-8.493-17.9-17.113Zm9.5-8.807,8.881,8.49,8.881-8.49-8.881-8.491Zm18.6.1-9.246,8.841,8.878,8.49,9.022-8.625v-16.981Zm.109,17.781,8.881,8.491,8.881-8.491-8.881-8.491Zm9.211-9.074,9.022,8.624,8.882-8.494-17.9-17.111Zm9.5-8.808,8.881,8.491,8.881-8.491-8.881-8.49Zm18.6.1-9.246,8.842,8.882,8.487,9.022-8.625v-16.981Zm.108,17.782,8.881,8.491,8.881-8.491-8.881-8.491Zm9.212-9.074,9.022,8.625,8.881-8.492-17.9-17.114Zm9.5-8.808,8.881,8.491,8.881-8.491-8.881-8.49Zm18.6.1-9.246,8.843,8.882,8.485,9.022-8.624v-16.981Zm.108,17.783,8.881,8.491,8.881-8.491-8.881-8.491Zm9.212-9.074,9.022,8.624,8.881-8.491-17.9-17.114Zm9.495-8.808,8.881,8.491,8.881-8.491-8.881-8.49Zm18.6.1-9.246,8.844,8.883,8.485,9.022-8.624v-16.982Zm.109,17.785,8.881,8.491,8.881-8.491-8.881-8.491Zm9.212-9.074,9.022,8.625,8.881-8.492-17.9-17.114Zm9.49-8.814,8.881,8.491,8.881-8.491-8.881-8.49Zm18.6.1-9.25,8.838,8.886,8.49,9.022-8.624v-16.981Zm.1,17.778,8.881,8.491,8.881-8.491-8.881-8.491Zm18.238-.447,8.881-8.491-17.9-17.115v16.981Zm0-17.884,9.022-8.625v-16.981l-17.9,17.115Zm0-17.882,8.881-8.491-17.9-17.115v16.981Zm0-17.884,9.022-8.624v-16.981l-17.9,17.115Zm0-17.881,8.881-8.491-17.9-17.115v16.981Zm0-17.884,9.022-8.624v-16.982l-17.9,17.115Zm0-17.881,8.881-8.491-17.9-17.115v16.981Zm0-17.884,9.023-8.625v-16.981l-17.9,17.115Zm0-17.882,8.881-8.491-17.9-17.115v16.981Zm0-17.884,9.023-8.625v-16.98l-17.9,17.115Zm0-17.886,8.881-8.491-17.9-17.11v16.977Z" transform="translate(-7522.701 -12003.801)" fill="#fff" fill-rule="evenodd"/>
</svg>
