<svg xmlns="http://www.w3.org/2000/svg" width="74.222" height="39.254" viewBox="0 0 74.222 39.254">
  <path id="pravo" d="M9381.678,19033.348h-.013a.9.9,0,0,0-.9.9.9.9,0,0,0,.9.9h.008c16.73,0,3.732,0,69.777,0h.168l-16.51,17.191a.876.876,0,0,0-.182.285.894.894,0,0,0-.062.336.92.92,0,0,0,.07.355.933.933,0,0,0,.207.3.9.9,0,0,0,.286.188.878.878,0,0,0,.334.066.859.859,0,0,0,.354-.07.894.894,0,0,0,.292-.211l18.578-19.336-18.582-19.352a.881.881,0,0,0-.286-.207.967.967,0,0,0-.344-.078l-.025,0a.894.894,0,0,0-.9.895.957.957,0,0,0,.063.348.886.886,0,0,0,.192.289c5.545,5.266,11.145,11.6,16.517,17.2Zm53.471,20.27Z" transform="translate(-9380.768 -19014.613)" fill="#9b9b9b" fill-rule="evenodd"/>
</svg>
